<svg xmlns="http://www.w3.org/2000/svg" viewBox="0 0 75.12 59.12"><defs><style>.cls-1{stroke:#000;stroke-miterlimit:10;stroke-width:3px;}</style></defs><title>Asset 3</title><g id="Layer_2" data-name="Layer 2"><g id="Layer_1-2" data-name="Layer 1"><path d="M0,21.7V3.46H1.91a.82.82,0,0,1,.86.67l.25,2A10.27,10.27,0,0,1,5.68,4a6.91,6.91,0,0,1,3.39-.81,6.58,6.58,0,0,1,2.64.49,5.18,5.18,0,0,1,1.91,1.4,6.37,6.37,0,0,1,1.16,2.19,9.68,9.68,0,0,1,.39,2.83V21.7H12V10.09a4.89,4.89,0,0,0-1-3.22A3.51,3.51,0,0,0,8.14,5.73a5.36,5.36,0,0,0-2.66.69A8.71,8.71,0,0,0,3.2,8.27V21.7Z"/><path d="M27.4,3.18a9.39,9.39,0,0,1,3.6.66,7.72,7.72,0,0,1,2.74,1.89,8.35,8.35,0,0,1,1.73,3,11.83,11.83,0,0,1,.6,3.88,11.81,11.81,0,0,1-.6,3.89,8.31,8.31,0,0,1-1.73,2.95A7.34,7.34,0,0,1,31,21.29a9.39,9.39,0,0,1-3.6.66,9.4,9.4,0,0,1-3.61-.66A7.45,7.45,0,0,1,21,19.41a8.33,8.33,0,0,1-1.74-2.95,11.54,11.54,0,0,1-.62-3.89,11.57,11.57,0,0,1,.62-3.88,8.37,8.37,0,0,1,1.74-3,7.85,7.85,0,0,1,2.75-1.89A9.4,9.4,0,0,1,27.4,3.18Zm0,16.27a4.7,4.7,0,0,0,4-1.81,8.37,8.37,0,0,0,1.33-5.05,8.47,8.47,0,0,0-1.33-5.08,4.67,4.67,0,0,0-4-1.81A5.62,5.62,0,0,0,25,6.16a4.61,4.61,0,0,0-1.68,1.35,6,6,0,0,0-1,2.17A11.76,11.76,0,0,0,22,12.59a11.62,11.62,0,0,0,.33,2.9,5.87,5.87,0,0,0,1,2.15A4.49,4.49,0,0,0,25,19,5.61,5.61,0,0,0,27.4,19.45Z"/><path d="M46.61,38.62A9.64,9.64,0,0,1,50,39.2a7.34,7.34,0,0,1,2.65,1.67,7.79,7.79,0,0,1,1.73,2.69A10,10,0,0,1,55,47.17a9.28,9.28,0,0,1,0,1,1.87,1.87,0,0,1-.2.63.76.76,0,0,1-.39.32,1.81,1.81,0,0,1-.62.09H43a5.29,5.29,0,0,0,1.42,3.4,4.24,4.24,0,0,0,3,1A5.48,5.48,0,0,0,49,53.46a7.7,7.7,0,0,0,1.25-.53l1-.52a2.19,2.19,0,0,1,1-.23,1.16,1.16,0,0,1,1,.48l1.62,2A8,8,0,0,1,53,56.27a9.32,9.32,0,0,1-2.05,1,10.9,10.9,0,0,1-2.11.49,15.81,15.81,0,0,1-2,.14,10.66,10.66,0,0,1-3.68-.64,8.47,8.47,0,0,1-3-1.9,9,9,0,0,1-2-3.13,11.89,11.89,0,0,1-.74-4.36A9.8,9.8,0,0,1,38,44.29a8.59,8.59,0,0,1,4.73-4.93A9.56,9.56,0,0,1,46.61,38.62Zm.11,3.86a3.37,3.37,0,0,0-2.5.9A4.74,4.74,0,0,0,43,46h7a5.07,5.07,0,0,0-.17-1.29,3.42,3.42,0,0,0-.56-1.13,2.93,2.93,0,0,0-1-.8A3.54,3.54,0,0,0,46.72,42.48Z"/><path d="M58.2,57.58V38.91h3.46a1.49,1.49,0,0,1,.87.24,1.23,1.23,0,0,1,.5.7l.32,1.08A12.39,12.39,0,0,1,64.47,40a6.33,6.33,0,0,1,1.23-.73,7.63,7.63,0,0,1,1.42-.47,7.94,7.94,0,0,1,1.67-.17,6.62,6.62,0,0,1,2.71.53,5.76,5.76,0,0,1,2,1.48,6.43,6.43,0,0,1,1.22,2.25,9.24,9.24,0,0,1,.41,2.84V57.58H69.54V45.72a3.27,3.27,0,0,0-.63-2.14,2.25,2.25,0,0,0-1.85-.76,4,4,0,0,0-1.73.39,7,7,0,0,0-1.55,1.07v13.3Z"/><line class="cls-1" x1="7.76" y1="58.06" x2="64.76" y2="1.06"/></g></g></svg>