<svg xmlns="http://www.w3.org/2000/svg" viewBox="0 0 73.59 59.12"><defs><style>.cls-1{stroke:#000;stroke-miterlimit:10;stroke-width:3px;}</style></defs><title>Asset 2</title><g id="Layer_2" data-name="Layer 2"><g id="Layer_1-2" data-name="Layer 1"><path d="M0,21.7V3H3.46a1.53,1.53,0,0,1,.87.24,1.22,1.22,0,0,1,.49.7l.33,1.08a13.81,13.81,0,0,1,1.11-.94A6.72,6.72,0,0,1,7.5,3.38a7.39,7.39,0,0,1,1.42-.47,7.84,7.84,0,0,1,1.66-.17,6.43,6.43,0,0,1,2.71.54,5.53,5.53,0,0,1,2,1.47A6.45,6.45,0,0,1,16.51,7a9.55,9.55,0,0,1,.41,2.84V21.7H11.34V9.84a3.27,3.27,0,0,0-.63-2.14,2.26,2.26,0,0,0-1.85-.76,3.92,3.92,0,0,0-1.73.39A6.73,6.73,0,0,0,5.58,8.4V21.7Z"/><path d="M29.2,2.74a10.92,10.92,0,0,1,3.87.67,8.38,8.38,0,0,1,3,1.91,8.65,8.65,0,0,1,1.95,3,10.91,10.91,0,0,1,.69,4,11.08,11.08,0,0,1-.69,4,8.6,8.6,0,0,1-1.95,3,8.43,8.43,0,0,1-3,1.93,11.44,11.44,0,0,1-7.77,0,8.68,8.68,0,0,1-3-1.93,8.48,8.48,0,0,1-2-3,11.08,11.08,0,0,1-.69-4,10.91,10.91,0,0,1,.69-4,8.53,8.53,0,0,1,2-3,8.64,8.64,0,0,1,3-1.91A11,11,0,0,1,29.2,2.74Zm0,15.11A3.18,3.18,0,0,0,32,16.49a7.5,7.5,0,0,0,.91-4.13A7.46,7.46,0,0,0,32,8.23,3.18,3.18,0,0,0,29.2,6.88a3.26,3.26,0,0,0-2.9,1.35,7.45,7.45,0,0,0-.92,4.13,7.5,7.5,0,0,0,.92,4.13A3.26,3.26,0,0,0,29.2,17.85Z"/><path d="M46.77,39.06a8.28,8.28,0,0,1,3,.54,6.86,6.86,0,0,1,2.39,1.59,7.3,7.3,0,0,1,1.58,2.55,10.1,10.1,0,0,1,.56,3.47,2.1,2.1,0,0,1-.16,1,.67.67,0,0,1-.61.25H41.43a10,10,0,0,0,.47,3,6.07,6.07,0,0,0,1.18,2.13,5,5,0,0,0,1.8,1.28,6.25,6.25,0,0,0,2.34.42A6.71,6.71,0,0,0,49.3,55a11.3,11.3,0,0,0,1.51-.6,11,11,0,0,0,1-.61,1.4,1.4,0,0,1,.73-.27.71.71,0,0,1,.61.3L54.1,55a6.1,6.1,0,0,1-1.42,1.25,8.43,8.43,0,0,1-1.78.88,11.78,11.78,0,0,1-3.95.68,9.17,9.17,0,0,1-3.48-.64,7.68,7.68,0,0,1-2.75-1.87,8.47,8.47,0,0,1-1.81-3,12.48,12.48,0,0,1-.65-4.18,10.59,10.59,0,0,1,.58-3.56,8.23,8.23,0,0,1,1.69-2.87,7.66,7.66,0,0,1,2.68-1.91A8.83,8.83,0,0,1,46.77,39.06Zm.08,2.35a5,5,0,0,0-3.66,1.34,6.3,6.3,0,0,0-1.65,3.72h9.91a6.61,6.61,0,0,0-.3-2,4.72,4.72,0,0,0-.9-1.6,4.13,4.13,0,0,0-1.45-1A5,5,0,0,0,46.85,41.41Z"/><path d="M58.42,57.58V39.34h1.91a.82.82,0,0,1,.86.67l.25,2a10.27,10.27,0,0,1,2.66-2.12,6.91,6.91,0,0,1,3.39-.81,6.58,6.58,0,0,1,2.64.49A5.18,5.18,0,0,1,72,41a6.37,6.37,0,0,1,1.16,2.19A9.68,9.68,0,0,1,73.59,46V57.58h-3.2V46a4.94,4.94,0,0,0-1-3.22,3.53,3.53,0,0,0-2.89-1.14,5.35,5.35,0,0,0-2.65.69,8.71,8.71,0,0,0-2.28,1.85V57.58Z"/><line class="cls-1" x1="8.22" y1="58.06" x2="65.22" y2="1.06"/></g></g></svg>